<?xml version="1.0" standalone="no"?>
<!DOCTYPE svg PUBLIC "-//W3C//DTD SVG 20010904//EN"
 "http://www.w3.org/TR/2001/REC-SVG-20010904/DTD/svg10.dtd">
<svg version="1.0" xmlns="http://www.w3.org/2000/svg"
 width="56px" height="56px" viewBox="0 0 1024.000000 1024.000000"
 preserveAspectRatio="xMidYMid meet">

<g transform="translate(0.000000,1024.000000) scale(0.100000,-0.100000)"
fill="#0A439B" stroke="none">
<path d="M0 5120 l0 -5120 5120 0 5120 0 0 5120 0 5120 -5120 0 -5120 0 0
-5120z m5316 3039 c351 -34 691 -144 983 -318 594 -353 998 -946 1107 -1626
21 -133 30 -499 15 -635 -57 -521 -287 -1007 -646 -1365 -372 -372 -840 -601
-1368 -670 -153 -20 -459 -20 -614 0 -562 72 -1098 358 -1459 778 -303 353
-489 766 -550 1224 -22 169 -22 457 0 618 69 497 278 930 618 1281 200 206
390 345 650 474 394 196 842 281 1264 239z m-3282 -5461 c2 -7 23 -101 46
-208 22 -107 44 -203 48 -212 4 -10 28 70 62 208 l54 224 47 0 46 0 33 -137
c19 -76 44 -181 56 -233 12 -52 24 -88 27 -80 3 8 24 96 47 195 65 282 55 255
99 255 l37 0 -70 -275 -71 -275 -45 0 -46 0 -52 198 c-29 108 -55 214 -59 235
-5 32 -14 4 -64 -195 -32 -128 -59 -234 -59 -236 0 -2 -19 -2 -42 0 l-41 3
-68 265 c-38 146 -69 268 -69 273 0 13 80 8 84 -5z m1146 -18 l0 -30 -135 0
-135 0 0 -85 0 -85 130 0 130 0 0 -30 0 -30 -130 0 -131 0 3 -97 3 -98 135 -2
135 -1 2 -31 1 -31 -176 2 -177 3 -3 273 -2 272 175 0 175 0 0 -30z m595 8 c3
-13 25 -112 50 -222 42 -191 55 -234 55 -187 0 12 23 114 51 226 l51 205 47 0
47 0 54 -230 c30 -126 57 -224 61 -217 3 7 28 110 55 229 l49 218 38 0 c20 0
37 -3 37 -7 0 -5 -31 -127 -69 -273 l-68 -265 -45 -3 -45 -3 -47 175 c-26 97
-53 203 -60 237 l-12 62 -13 -59 c-7 -33 -33 -139 -58 -236 l-46 -178 -38 0
c-33 0 -39 3 -48 33 -12 40 -131 501 -131 510 0 4 18 7 40 7 33 0 41 -4 45
-22z m875 -253 l0 -275 -40 0 -40 0 0 275 0 275 40 0 40 0 0 -275z m320 30 l0
-246 135 2 c74 0 135 -2 135 -5 0 -3 0 -17 0 -31 l0 -25 -175 0 -175 0 0 275
0 275 40 0 40 0 0 -245z m540 -1 l0 -246 135 4 135 3 0 -32 0 -33 -175 0 -175
0 0 275 0 275 40 0 40 0 0 -246z m885 22 c27 -124 51 -224 52 -222 2 1 25 92
53 202 27 109 52 209 56 222 6 20 12 23 52 20 l45 -3 56 -230 56 -230 55 233
54 232 38 0 c21 0 38 -1 38 -3 0 -2 -31 -124 -70 -272 -38 -149 -70 -271 -70
-272 0 -2 -20 -3 -44 -3 -34 0 -46 4 -50 18 -23 79 -90 335 -101 385 -7 34
-15 55 -17 47 -3 -8 -29 -113 -59 -232 l-54 -218 -41 0 c-40 0 -41 0 -52 48
-6 26 -38 149 -71 275 l-59 227 42 0 42 0 49 -224z m1105 194 l0 -30 -135 0
-135 0 0 -85 0 -85 125 0 125 0 0 -30 0 -30 -125 0 -125 0 0 -101 0 -101 135
4 135 3 0 -32 0 -33 -175 0 -175 0 0 275 0 275 175 0 175 0 0 -30z m512 20
c54 -15 88 -61 88 -118 0 -57 -29 -109 -65 -118 -30 -7 -33 -24 -4 -24 12 0
36 -15 55 -34 30 -30 34 -40 34 -85 0 -68 -18 -101 -72 -131 -39 -22 -56 -25
-185 -28 l-143 -4 0 276 0 276 128 0 c70 0 144 -5 164 -10z"/>
<path d="M4417 7295 c-233 -44 -466 -171 -643 -349 -91 -92 -134 -175 -134
-257 0 -79 28 -114 92 -114 58 0 89 22 128 92 45 81 196 227 296 286 186 111
385 143 505 83 148 -75 144 -315 -11 -533 -51 -72 -175 -199 -250 -256 -81
-62 -183 -119 -315 -179 -137 -62 -166 -82 -185 -129 -17 -40 -5 -76 33 -99
44 -27 100 -25 166 7 73 34 192 43 273 19 72 -21 147 -87 179 -158 21 -47 24
-67 23 -183 0 -114 -3 -139 -26 -203 -36 -100 -82 -174 -153 -247 -131 -134
-266 -198 -420 -199 -110 0 -174 24 -234 89 -45 48 -61 95 -61 175 0 113 -39
180 -103 180 -77 0 -126 -79 -127 -200 0 -403 424 -609 845 -411 138 65 252
163 344 299 108 160 181 381 181 546 -1 128 -50 265 -126 346 -49 52 -157 114
-220 126 -19 3 -34 9 -33 13 0 3 35 31 77 61 97 70 241 213 316 313 78 105
152 247 172 332 21 93 15 228 -16 308 -42 110 -135 199 -245 233 -71 22 -233
27 -328 9z"/>
<path d="M6443 6826 c-31 -26 -53 -82 -53 -135 0 -17 11 -83 25 -146 48 -224
54 -435 19 -685 -51 -356 -160 -629 -323 -803 -81 -87 -140 -100 -196 -44 -55
55 -70 123 -69 317 1 185 9 239 84 574 28 120 50 231 50 246 0 34 -37 90 -70
107 -44 22 -77 16 -120 -23 -47 -43 -68 -103 -100 -289 -39 -224 -135 -466
-255 -645 -100 -147 -155 -200 -210 -200 -41 0 -81 43 -91 97 -10 55 2 203 31
358 47 255 88 396 167 568 78 173 83 256 17 311 -54 46 -127 28 -166 -41 -45
-81 -218 -674 -269 -926 -22 -107 -27 -159 -28 -277 0 -131 3 -153 28 -227 78
-239 247 -278 433 -100 34 33 85 93 113 133 51 74 133 234 145 287 11 43 25
32 25 -20 1 -140 72 -340 150 -420 133 -139 336 -118 506 51 145 145 240 366
328 764 65 289 80 419 80 687 1 262 -7 318 -62 418 -46 84 -130 112 -189 63z"/>
<path d="M7800 2561 l0 -91 58 0 c112 0 162 30 162 96 0 18 -9 42 -19 55 -17
21 -29 24 -110 27 l-91 4 0 -91z"/>
<path d="M7800 2321 l0 -101 63 0 c83 1 138 14 160 41 17 21 23 73 11 104 -11
28 -65 47 -151 53 l-83 5 0 -102z"/>
</g>
</svg>
